:version 1.10
:name ASF
:units
  mass 1
  length 1
  angle deg
:documentation
  ASF file generated by Kaydara
:root
  axis xyz
  order  tx ty tz rx ry rz
  position 0 0 0
  orientation 0 0 0
:bonedata
  begin
    id 1
    name RightUpLegDummy
    direction -0.718183 -0.695806 0.00816078
    length 4.904
    axis 0 0 0 xyz
  end
  begin
    id 2
    name RightUpLeg
    direction 3.53373e-006 -0.995788 0.0916898
    length 17.4976
    axis -3.49089 -0.000906625 0.000286804 xyz
    dof rx ry rz
  end
  begin
    id 3
    name RightLeg
    direction 0.00371092 -0.995096 -0.0988419
    length 16.5821
    axis 3.68512 0.0193738 -0.131023 xyz
    dof rx ry rz
  end
  begin
    id 4
    name RightFoot
    direction 0.00079151 -0.46099 0.887405
    length 3.77069
    axis 4.81691e-005 -0.120479 -0.188788 xyz
    dof rx ry rz
  end
  begin
    id 5
    name RightToes
    direction 0.00124746 -0.014064 0.9999
    length 3.85082
    axis 0.000481921 0.542163 -0.142578 xyz
    dof rx ry rz
  end
  begin
    id 6
    name SpineDummy
    direction 8.3039e-015 1 4.57515e-016
    length 4.6813
    axis 0 0 0 xyz
  end
  begin
    id 7
    name Spine
    direction -3.15643e-008 0.999988 0.00495137
    length 10.1015
    axis -0.001389 0.000121418 2.40972e-006 xyz
    dof rx ry rz
  end
  begin
    id 8
    name Spine1
    direction 0 0 0
    length 0
    axis -0.001389 0.000121451 1.30017e-006 xyz
    dof rx ry rz
  end
  begin
    id 9
    name HEadDummy
    direction -1.99912e-008 0.999999 0.00127422
    length 3.43865
    axis -0.001389 0.000121451 1.30017e-006 xyz
  end
  begin
    id 10
    name HEad
    direction -0.0222688 0.980941 0.193023
    length 5.12695
    axis -0.001389 0.000121451 1.30017e-006 xyz
    dof rx ry rz
  end
  begin
    id 11
    name LeftShoulder1Dummy
    direction 0.998891 -0.0402509 -0.0244456
    length 3.5433
    axis -0.001389 0.000121451 1.30017e-006 xyz
  end
  begin
    id 12
    name LeftShoulder1
    direction 0.99951 -0.000327763 0.0313091
    length 4.05031
    axis -0.001389 0.000121451 1.30017e-006 xyz
    dof rx ry rz
  end
  begin
    id 13
    name LeftArm
    direction 0.998561 -0.00100056 -0.0536182
    length 10.3537
    axis -23.1894 0.134784 0.967509 xyz
    dof rx ry rz
  end
  begin
    id 14
    name LeftForeArm
    direction 0.998903 0.00866432 0.046012
    length 8.70632
    axis -9.91835 -0.06569 -0.177794 xyz
    dof rx ry rz
  end
  begin
    id 15
    name LeftHand
    direction 0.992938 -0.0411637 0.11126
    length 5.32135
    axis -0.00960232 -0.00340091 0.185173 xyz
    dof rx ry rz
  end
  begin
    id 16
    name RightShoulderDummy
    direction -0.998891 -0.0402509 -0.0244414
    length 3.5433
    axis -0.001389 0.000121451 1.30017e-006 xyz
  end
  begin
    id 17
    name RightShoulder
    direction -0.99951 -0.000327807 0.0313133
    length 4.05031
    axis 0.215806 0.000203643 -0.0068026 xyz
    dof rx ry rz
  end
  begin
    id 18
    name RightArm
    direction -0.998573 -0.000999564 -0.053403
    length 10.3947
    axis -23.2009 -0.134239 -0.964101 xyz
    dof rx ry rz
  end
  begin
    id 19
    name RightForeArm
    direction -0.998898 0.00868028 0.0461306
    length 8.68355
    axis -9.92322 0.0658061 0.178868 xyz
    dof rx ry rz
  end
  begin
    id 20
    name RightHand
    direction -0.992843 -0.0414603 0.112003
    length 5.28593
    axis -0.00960638 0.00330671 -0.185228 xyz
    dof rx ry rz
  end
  begin
    id 21
    name LeftUpLegDummy
    direction 0.718183 -0.695806 0.00816078
    length 4.904
    axis 0 0 0 xyz
  end
  begin
    id 22
    name LeftUpLeg
    direction -6.81752e-006 -0.995793 0.0916337
    length 17.4976
    axis -3.48766 0.00143442 -0.000524262 xyz
    dof rx ry rz
  end
  begin
    id 23
    name LeftLeg
    direction -0.00601358 -0.995091 -0.0987824
    length 16.5821
    axis 3.68178 -0.00654042 -0.000285133 xyz
    dof rx ry rz
  end
  begin
    id 24
    name LeftFoot
    direction -0.00417578 -0.460984 0.887399
    length 3.77069
    axis 1.87233e-006 4.66016e-005 -8.6538e-006 xyz
    dof rx ry rz
  end
  begin
    id 25
    name LeftToes
    direction 0.00818058 -0.00485161 0.999955
    length 3.85048
    axis 1.06247e-005 4.65869e-005 -8.65513e-006 xyz
    dof rx ry rz
  end
:hierarchy
  begin
    root RightUpLegDummy SpineDummy LeftUpLegDummy
    RightUpLegDummy RightUpLeg
    RightUpLeg RightLeg
    RightLeg RightFoot
    RightFoot RightToes
    SpineDummy Spine
    Spine Spine1
    Spine1 HEadDummy LeftShoulder1Dummy RightShoulderDummy
    HEadDummy HEad
    LeftShoulder1Dummy LeftShoulder1
    LeftShoulder1 LeftArm
    LeftArm LeftForeArm
    LeftForeArm LeftHand
    RightShoulderDummy RightShoulder
    RightShoulder RightArm
    RightArm RightForeArm
    RightForeArm RightHand
    LeftUpLegDummy LeftUpLeg
    LeftUpLeg LeftLeg
    LeftLeg LeftFoot
    LeftFoot LeftToes
  end

:SAMPLES-PER-SECOND 30
:FRAME-RANGE 1-2009
:FULLY-SPECIFIED
:DEGREES
1
root  -84.5483 39.8756 -115.093 -179.653 80.0764 179.313
RightUpLeg  1.27128 -3.3916 -1.35457
RightLeg  1.75721 -1.59539 -0.742031
RightFoot  -5.46444 -0.23712 3.87938
RightToes  4.71047e-010 1.2921e-014 -6.02303e-014
Spine  3.99064 0.863725 2.30969
Spine1  -3.96354 1.19166 -1.58324
HEad  6.02729 3.52982 -0.794146
LeftShoulder1  1.50883 -0.293984 -33.6247
LeftArm  24.2805 0.606462 -37.7458
LeftForeArm  0.794048 -6.65621 -17.6843
LeftHand  0.301785 -0.222848 -6.26126
RightShoulder  7.45825 8.53107 54.1691
RightArm  26.7899 1.87686 13.9839
RightForeArm  12.7544 2.54907 18.1138
RightHand  0.232318 -1.08806 6.49279
LeftUpLeg  -2.20292 7.76478 4.99876
LeftLeg  -2.55058 5.29757 -2.26941
LeftFoot  3.74671 0.873462 -6.72167
LeftToes  2.15783e-011 -7.56106e-012 -8.20802e-012
2
root  -84.5628 39.8756 -115.104 -179.657 80.1507 179.278
RightUpLeg  1.18364 -3.40667 -1.38159
RightLeg  1.80133 -1.55037 -0.735353
RightFoot  -5.42813 -0.231967 3.79939
RightToes  4.71047e-010 1.2921e-014 -6.02303e-014
Spine  3.95532 0.869744 2.32222
Spine1  -3.881 1.20337 -1.61153
HEad  6.44864 2.9534 -1.24429
LeftShoulder1  1.50883 -0.293984 -33.6117
LeftArm  24.2615 0.555613 -37.771
LeftForeArm  0.767131 -6.65621 -17.6843
LeftHand  0.279863 -0.0803616 -5.97597
RightShoulder  7.51155 8.61142 54.1929
RightArm  26.1315 2.01675 14.0231
RightForeArm  13.5941 2.33194 18.0875
RightHand  0.253443 -0.697877 6.41538
LeftUpLeg  -2.20313 7.74212 4.98555
LeftLeg  -2.60944 5.21696 -2.28189
LeftFoot  3.73208 0.880066 -6.82501
LeftToes  2.15783e-011 -7.56106e-012 -8.20802e-012
3
root  -84.5707 39.8756 -115.115 -179.736 80.1375 179.23
RightUpLeg  1.23348 -3.42872 -1.41023
RightLeg  1.75495 -1.52515 -0.743846
RightFoot  -5.42923 -0.239311 3.91339
RightToes  4.71047e-010 1.2921e-014 -6.02303e-014
Spine  4.00181 0.850473 2.30241
Spine1  -3.85359 1.18148 -1.59122
HEad  6.56933 3.14504 -1.41133
LeftShoulder1  1.50883 -0.293984 -33.657
LeftArm  24.2516 0.486404 -37.7299
LeftForeArm  0.788089 -6.6544 -17.6848
LeftHand  0.285688 -0.103906 -6.07097
RightShoulder  7.51322 8.6127 54.1989
RightArm  26.9884 2.17934 14.1787
RightForeArm  12.377 2.9036 18.0397
RightHand  0.229631 -1.08946 6.42209
LeftUpLeg  -2.16848 7.72189 4.95289
LeftLeg  -2.6373 5.27413 -2.27624
LeftFoot  3.76274 0.876884 -6.77522
LeftToes  2.15783e-011 -7.56106e-012 -8.20802e-012
4
root  -84.5755 39.8756 -115.122 179.993 80.1671 178.978
RightUpLeg  1.23984 -3.52983 -1.52768
RightLeg  1.78145 -1.35944 -0.646473
RightFoot  -5.39436 -0.229357 3.75889
RightToes  4.71047e-010 1.2921e-014 -6.02303e-014
Spine  3.93329 0.846777 2.13244
Spine1  -3.69347 1.1472 -1.40297
HEad  7.13629 2.44989 -0.787344
LeftShoulder1  1.50883 -0.288902 -33.7233
LeftArm  24.2763 0.412446 -37.721
LeftForeArm  0.703191 -6.69692 -17.6705
LeftHand  0.28711 -0.12206 -6.08745
RightShoulder  7.63462 8.81122 54.1868
RightArm  25.5924 2.20219 14.2213
RightForeArm  13.646 2.77975 17.9044
RightHand  0.249628 -0.88153 6.60888
LeftUpLeg  -2.11606 7.64204 4.87273
LeftLeg  -2.70524 5.34994 -2.23863
LeftFoot  3.80094 0.878 -6.79269
LeftToes  2.15783e-011 -7.56106e-012 -8.20802e-012
5
root  -84.5824 39.8756 -115.132 179.818 80.2205 178.858
RightUpLeg  1.25469 -3.53611 -1.54636
RightLeg  1.84585 -1.28689 -0.701103
RightFoot  -5.45863 -0.238423 3.8996
RightToes  4.71047e-010 1.2921e-014 -6.02303e-014
Spine  4.01021 0.85378 2.12753
Spine1  -3.67203 1.16023 -1.42362
HEad  7.23883 2.91929 -0.894861
LeftShoulder1  1.51271 -0.309675 -33.7099
LeftArm  24.1242 0.359463 -37.7922
LeftForeArm  0.868297 -6.64831 -17.6754
LeftHand  0.286638 -0.140537 -6.07948
RightShoulder  7.90316 9.17141 54.4823
RightArm  26.5929 2.07472 13.9188
RightForeArm  12.6284 3.56273 17.7819
RightHand  0.263753 -0.571883 6.47764
LeftUpLeg  -2.0302 7.6695 4.87155
LeftLeg  -2.7368 5.35137 -2.28011
LeftFoot  3.76977 0.877396 -6.78323
LeftToes  2.15783e-011 -7.56106e-012 -8.20802e-012
6
root  -84.5883 39.8756 -115.141 179.697 80.2956 178.715
RightUpLeg  1.17643 -3.54635 -1.57844
RightLeg  1.92245 -1.20822 -0.720426
RightFoot  -5.44631 -0.234054 3.83179
RightToes  4.71047e-010 1.2921e-014 -6.02303e-014
Spine  3.91539 0.861386 2.02367
Spine1  -3.54026 1.14267 -1.28263
HEad  7.2667 3.42385 -0.98873
LeftShoulder1  1.5163 -0.30597 -33.7412
LeftArm  24.1257 0.300454 -37.8221
LeftForeArm  0.917101 -6.68105 -17.657
LeftHand  0.286353 -0.1756 -6.13546
RightShoulder  7.82759 9.09874 54.2831
RightArm  25.5122 2.42546 14.4284
RightForeArm  13.77 3.31537 17.7135
RightHand  0.266502 -0.609504 6.60161
LeftUpLeg  -2.03145 7.72585 4.86311
LeftLeg  -2.75675 5.3943 -2.35919
LeftFoot  3.78321 0.869457 -6.7181
LeftToes  2.15783e-011 -7.56106e-012 -8.20802e-012
7
root  -84.5965 39.8756 -115.152 179.783 80.3873 178.809
RightUpLeg  1.14303 -3.49153 -1.53373
RightLeg  1.94915 -1.21034 -0.806305
RightFoot  -5.45091 -0.240343 3.9294
RightToes  4.71047e-010 1.2921e-014 -6.02303e-014
Spine  3.97281 0.860086 2.14403
Spine1  -3.52694 1.15263 -1.33581
HEad  7.28723 3.92446 -1.24015
LeftShoulder1  1.51889 -0.3085 -33.8194
LeftArm  24.1994 0.23127 -37.8252
LeftForeArm  0.865481 -6.71528 -17.6472
LeftHand  0.283831 -0.172078 -6.10505
RightShoulder  7.8415 9.14673 54.1783
RightArm  25.458 2.55581 14.742
RightForeArm  13.8162 3.63354 17.5872
RightHand  0.267466 -0.502776 6.46404
LeftUpLeg  -2.04389 7.84093 4.91644
LeftLeg  -2.68763 5.41249 -2.45546
LeftFoot  3.72078 0.857868 -6.65592
LeftToes  2.15783e-011 -7.56106e-012 -8.20802e-012
8
root  -84.6047 39.875 -115.164 179.945 80.5986 178.939
RightUpLeg  1.02396 -3.48556 -1.53038
RightLeg  2.03766 -1.00028 -0.799025
RightFoot  -5.44754 -0.237861 3.89088
RightToes  4.71047e-010 1.2921e-014 -6.02303e-014
Spine  4.01815 0.903545 2.26715
Spine1  -3.5622 1.20692 -1.38929
HEad  6.98604 3.78608 -1.5902
LeftShoulder1  1.52108 -0.312803 -33.8467
LeftArm  24.4811 0.221705 -37.8523
LeftForeArm  0.688904 -6.81447 -17.6278
LeftHand  0.280898 -0.146391 -6.06208
RightShoulder  7.94583 9.27588 54.3359
RightArm  27.1614 2.61674 14.6752
RightForeArm  12.1066 4.6458 17.4323
RightHand  0.272835 -0.421712 6.50023
LeftUpLeg  -2.08394 7.99121 5.00016
LeftLeg  -2.59927 5.43175 -2.57865
LeftFoot  3.63765 0.850968 -6.63702
LeftToes  2.15783e-011 -7.56106e-012 -8.20802e-012
9
root  -84.6147 39.8731 -115.165 179.947 80.7876 178.87
RightUpLeg  0.850444 -3.50096 -1.55396
RightLeg  2.15061 -0.772343 -0.773452
RightFoot  -5.4973 -0.240087 3.92542
RightToes  4.71047e-010 1.2921e-014 -6.02303e-014
Spine  4.01095 0.941321 2.19513
Spine1  -3.53458 1.22566 -1.27793
HEad  7.20818 4.12635 -1.27603
LeftShoulder1  1.52399 -0.320382 -33.7918
LeftArm  24.2968 0.193666 -37.9498
LeftForeArm  0.834867 -6.73142 -17.6477
LeftHand  0.279091 -0.1764 -6.056
RightShoulder  8.03139 9.42971 54.2706
RightArm  27.0347 2.47443 14.8228
RightForeArm  11.8497 5.28914 17.1689
RightHand  0.277833 -0.397839 6.55459
LeftUpLeg  -2.1737 8.0875 5.03705
LeftLeg  -2.52798 5.58971 -2.67751
LeftFoot  3.60367 0.840419 -6.57046
LeftToes  2.15783e-011 -7.56106e-012 -8.20802e-012
10
root  -84.6213 39.8714 -115.17 179.892 81.0431 178.755
RightUpLeg  0.663625 -3.56303 -1.61691
RightLeg  2.31914 -0.476325 -0.677697
RightFoot  -5.51157 -0.231497 3.79209
RightToes  4.71047e-010 1.2921e-014 -6.02303e-014
Spine  4.39287 0.906197 2.8672
Spine1  -4.01511 1.36663 -2.31701
HEad  7.15022 3.11741 -0.810692
LeftShoulder1  1.5287 -0.397975 -33.1272
LeftArm  23.7142 0.430562 -38.2657
LeftForeArm  1.31348 -6.49619 -17.6914
LeftHand  0.279028 -0.205571 -6.10513
RightShoulder  7.9426 9.1538 54.8123
RightArm  27.003 2.63464 14.8018
RightForeArm  11.6741 5.67368 17.0137
RightHand  0.28006 -0.422469 6.58644
LeftUpLeg  -2.18996 8.12167 5.03556
LeftLeg  -2.54974 5.78757 -2.7171
LeftFoot  3.5919 0.838488 -6.57556
LeftToes  2.15783e-011 -7.56106e-012 -8.20802e-012
11
root  -84.6289 39.8713 -115.167 -179.818 81.3615 178.975
RightUpLeg  0.492981 -3.62339 -1.65191
RightLeg  2.39599 -0.0938091 -0.52972
RightFoot  -5.51907 -0.22675 3.71842
RightToes  4.71047e-010 1.2921e-014 -6.02303e-014
Spine  4.37413 0.852722 2.51131
Spine1  -3.91159 1.21571 -1.76037
HEad  6.91288 3.74374 -0.952252
LeftShoulder1  1.51171 -0.3453 -33.2207
LeftArm  23.3592 0.614208 -38.1635
LeftForeArm  1.56379 -6.51078 -17.6512
LeftHand  0.280409 -0.207704 -6.17112
RightShoulder  8.06618 9.40216 54.6046
RightArm  26.1308 2.49625 14.9395
RightForeArm  11.9304 6.07355 16.7415
RightHand  0.2812 -0.511533 6.64069
LeftUpLeg  -2.16716 8.27432 5.15324
LeftLeg  -2.6496 5.99966 -2.83806
LeftFoot  3.58692 0.841715 -6.63559
LeftToes  2.15783e-011 -7.56106e-012 -8.20802e-012
12
root  -84.6419 39.8689 -115.142 -178.731 81.8584 179.933
RightUpLeg  0.236459 -3.36695 -1.43426
RightLeg  2.42568 0.127948 -0.556266
RightFoot  -5.5493 -0.228498 3.7683
RightToes  4.71047e-010 1.2921e-014 -6.02303e-014
Spine  4.25907 0.98549 2.86456
Spine1  -3.52288 1.38073 -1.90068
HEad  6.45612 3.74903 -0.996944
LeftShoulder1  1.54371 -0.402702 -33.4615
LeftArm  24.1615 0.175101 -37.9872
LeftForeArm  0.753579 -6.55718 -17.7251
LeftHand  0.280012 -0.143057 -6.05875
RightShoulder  7.98481 9.26428 54.6362
RightArm  25.8181 2.74062 14.7635
RightForeArm  11.6996 6.60726 16.496
RightHand  0.282893 -0.223627 6.64744
LeftUpLeg  -2.28958 8.74361 5.52851
LeftLeg  -2.51459 6.0612 -3.1442
LeftFoot  3.46865 0.84545 -6.68177
LeftToes  2.15783e-011 -7.56106e-012 -8.20802e-012
